HIERARCHY
ROOT Hips
{
	OFFSET 0.000000 0.000000 0.000000
	CHANNELS 6 Xposition Yposition Zposition Zrotation Yrotation Xrotation 
	JOINT LHipJoint
	{
		OFFSET 0.000000 0.000000 0.000000
		CHANNELS 3 Zrotation Yrotation Xrotation
		JOINT LeftUpLeg
		{
			OFFSET 1.363060 -1.794630 0.839290
			CHANNELS 3 Zrotation Yrotation Xrotation
			JOINT LeftLeg
			{
				OFFSET 2.448110 -6.726130 0.000000
				CHANNELS 3 Zrotation Yrotation Xrotation
				JOINT LeftFoot
				{
					OFFSET 2.562200 -7.039590 0.000000
					CHANNELS 3 Zrotation Yrotation Xrotation
					JOINT LeftToeBase
					{
						OFFSET 0.157640 -0.433110 2.322550
						CHANNELS 3 Zrotation Yrotation Xrotation
						End Site
						{
							OFFSET 0.000000 0.000000 0.000000
						}
					}
				}
			}
		}
	}
	JOINT RHipJoint
	{
		OFFSET 0.000000 0.000000 0.000000
		CHANNELS 3 Zrotation Yrotation Xrotation
		JOINT RightUpLeg
		{
			OFFSET -1.305520 -1.794630 0.839290
			CHANNELS 3 Zrotation Yrotation Xrotation
			JOINT RightLeg
			{
				OFFSET -2.542530 -6.985550 0.000000
				CHANNELS 3 Zrotation Yrotation Xrotation
				JOINT RightFoot
				{
					OFFSET -2.568260 -7.056230 0.000000
					CHANNELS 3 Zrotation Yrotation Xrotation
					JOINT RightToeBase
					{
						OFFSET -0.164730 -0.452590 2.363150
						CHANNELS 3 Zrotation Yrotation Xrotation
						End Site
						{
							OFFSET 0.000000 0.000000 0.000000
						}
					}
				}
			}
		}
	}
	JOINT LowerBack
	{
		OFFSET 0.000000 0.000000 0.000000
		CHANNELS 3 Zrotation Yrotation Xrotation
		JOINT Spine
		{
			OFFSET 0.028270 2.035590 -0.193380
			CHANNELS 3 Zrotation Yrotation Xrotation
			JOINT Spine1
			{
				OFFSET 0.056720 2.048850 -0.042750
				CHANNELS 3 Zrotation Yrotation Xrotation
				JOINT Neck
				{
					OFFSET 0.000000 0.000000 0.000000
					CHANNELS 3 Zrotation Yrotation Xrotation
					JOINT Neck1
					{
						OFFSET -0.054170 1.746240 0.172020
						CHANNELS 3 Zrotation Yrotation Xrotation
						JOINT Head
						{
							OFFSET 0.104070 1.761360 -0.123970
							CHANNELS 3 Zrotation Yrotation Xrotation
							End Site
							{
								OFFSET 0.000000 0.000000 0.000000
							}
						}
					}
				}
				JOINT LeftShoulder
				{
					OFFSET 0.000000 0.000000 0.000000
					CHANNELS 3 Zrotation Yrotation Xrotation
					JOINT LeftArm
					{
						OFFSET 3.362410 1.200890 -0.311210
						CHANNELS 3 Zrotation Yrotation Xrotation
						JOINT LeftForeArm
						{
							OFFSET 4.983000 -0.000000 -0.000000
							CHANNELS 3 Zrotation Yrotation Xrotation
							JOINT LeftHand
							{
								OFFSET 3.483560 -0.000000 -0.000000
								CHANNELS 3 Zrotation Yrotation Xrotation
								JOINT LeftFingerBase
								{
									OFFSET 0.000000 0.000000 0.000000
									CHANNELS 3 Zrotation Yrotation Xrotation
									JOINT LeftHandIndex1
									{
										OFFSET 0.715260 -0.000000 -0.000000
										CHANNELS 3 Zrotation Yrotation Xrotation
										End Site
										{
											OFFSET 0.000000 0.000000 0.000000
										}
									}
								}
								JOINT LThumb
								{
									OFFSET 0.000000 0.000000 0.000000
									CHANNELS 3 Zrotation Yrotation Xrotation
									End Site
									{
										OFFSET 0.000000 0.000000 0.000000
									}
								}
							}
						}
					}
				}
				JOINT RightShoulder
				{
					OFFSET 0.000000 0.000000 0.000000
					CHANNELS 3 Zrotation Yrotation Xrotation
					JOINT RightArm
					{
						OFFSET -3.136600 1.374050 -0.404650
						CHANNELS 3 Zrotation Yrotation Xrotation
						JOINT RightForeArm
						{
							OFFSET -5.241900 -0.000000 -0.000000
							CHANNELS 3 Zrotation Yrotation Xrotation
							JOINT RightHand
							{
								OFFSET -3.444170 -0.000000 -0.000000
								CHANNELS 3 Zrotation Yrotation Xrotation
								JOINT RightFingerBase
								{
									OFFSET 0.000000 0.000000 0.000000
									CHANNELS 3 Zrotation Yrotation Xrotation
									JOINT RightHandIndex1
									{
										OFFSET -0.622530 -0.000000 -0.000000
										CHANNELS 3 Zrotation Yrotation Xrotation
										End Site
										{
											OFFSET 0.000000 0.000000 0.000000
										}
									}
								}
								JOINT RThumb
								{
									OFFSET 0.000000 0.000000 0.000000
									CHANNELS 3 Zrotation Yrotation Xrotation
									End Site
									{
										OFFSET 0.000000 0.000000 0.000000
									}
								}
							}
						}
					}
				}
			}
		}
	}
}
MOTION
Frames: 5
Frame Time: 0.008333
10.357137 18.092389 -2.549589 1.700137 -12.915849 7.381008 -1.379840 -2.373600 -2.319269 -17.599117 2.858628 -31.350580 -1.675028 10.668379 25.645100 0.589576 3.478718 15.543629 0.018100 0.867500 2.384200 0.179072 -1.239021 2.071685 12.114758 6.919314 -5.466323 -7.838759 -15.554605 51.049460 1.526424 -15.387483 31.785943 -0.005100 0.463400 -1.273200 -3.055642 5.336183 -0.492503 0.020750 6.821533 -3.856679 -2.851386 3.863722 -1.224588 -4.693772 -1.312706 -12.203619 5.523249 -1.533815 8.387679 1.581700 -0.623300 4.910900 1.842418 -8.038884 0.408248 -90.605668 19.939058 -26.817963 2.014955 -5.347659 -0.471609 -0.174096 1.155108 27.358903 14.720089 -6.317625 -1.998100 -7.125000 0.000000 0.000000 -8.314000 22.463400 4.553200 -3.891818 9.237518 0.809918 81.174251 16.327288 25.617392 -29.872364 37.084381 -13.635381 2.091031 1.841569 -21.550608 -25.267559 -35.939979 17.296000 7.125000 0.000000 0.000000 8.498100 -69.321300 -4.962500 
10.359051 18.121217 -2.326848 1.409124 -12.632842 7.411074 -1.503718 -2.379681 -2.126908 -17.341569 2.666863 -30.557045 -1.706113 10.472131 25.352733 0.557194 3.489937 15.190657 0.012800 0.731500 2.010200 0.110272 -0.889112 1.699510 12.794816 7.371331 -7.061764 -8.218167 -16.090339 53.414217 1.299318 -12.840581 30.165657 -0.157000 2.552700 -7.035700 -2.806062 5.158269 -0.207849 0.088380 6.585421 -3.887408 -2.780250 3.698378 -1.438880 -4.483594 -1.177628 -12.147738 5.223025 -1.360527 8.429280 1.359500 -0.555600 4.927800 1.849619 -8.204062 0.399445 -90.330939 18.387930 -27.298813 2.020124 -5.250308 -0.479919 -0.139735 1.189671 28.221301 14.859454 -6.334070 -2.032100 -7.125000 0.000000 0.000000 -8.210200 22.402300 4.506800 -3.837986 9.307528 0.775599 81.688477 15.338323 26.102275 -28.955480 36.541683 -13.067903 2.084020 1.884932 -21.713754 -25.248250 -36.497477 17.512800 7.125000 0.000000 0.000000 9.088300 -69.890100 -5.424800 
10.370875 18.158491 -2.087328 1.349222 -12.290310 7.304454 -1.634419 -2.342409 -1.899863 -17.410092 2.472886 -29.615944 -1.737320 10.297024 25.134052 0.540626 3.369761 14.521362 0.007500 0.558200 1.533900 0.023197 -0.614572 1.370206 13.071364 7.723101 -8.554963 -8.539128 -16.546884 55.492625 1.020600 -10.207134 28.485213 -0.544100 4.725800 -13.128100 -2.674612 4.989416 0.001263 0.128946 6.369418 -3.900210 -2.782482 3.543982 -1.563400 -4.152469 -1.105069 -12.107708 4.848002 -1.283951 8.532093 1.062400 -0.535100 4.977000 1.868291 -8.340899 0.397509 -90.049257 16.969349 -27.706141 2.154791 -5.335897 -0.517853 -0.173182 1.252359 29.136120 15.828512 -5.884348 -2.052400 -7.125000 0.000000 0.000000 -7.461000 22.792100 4.021300 -3.807235 9.355970 0.734829 82.421411 14.045406 26.278162 -28.317795 36.192227 -12.622630 2.064538 1.855896 -21.414024 -24.429097 -36.320010 16.870300 7.125000 0.000000 0.000000 10.115300 -69.477400 -5.948600 
10.386078 18.213107 -1.837335 1.617057 -11.936393 7.025819 -1.750798 -2.262463 -1.645755 -17.942703 2.407176 -28.611408 -1.747246 10.181954 25.080135 0.517296 3.187855 13.528346 0.013500 -0.751200 -2.064400 -0.075054 -0.424894 1.099262 12.900777 7.845639 -9.869190 -8.814544 -16.912169 57.219171 0.803950 -7.887109 26.438941 -0.968700 6.266100 -17.558400 -2.788023 4.813042 0.242232 0.126513 6.150469 -3.893383 -2.811411 3.393247 -1.655139 -4.083983 -1.102526 -11.961972 4.735557 -1.286718 8.622081 0.986500 -0.542700 4.996800 1.846285 -8.451396 0.408837 -89.817757 15.694943 -28.160228 2.359719 -5.513985 -0.597575 -0.118251 1.410480 30.693117 17.504287 -6.760057 -2.617900 -7.125000 0.000000 0.000000 -6.172800 21.648300 3.480000 -3.826852 9.386242 0.707720 83.147992 12.462044 26.388488 -27.858591 35.998904 -12.280284 2.027428 1.821700 -21.191590 -23.276063 -35.995788 15.951800 7.125000 0.000000 0.000000 11.446700 -68.830100 -6.572200 
10.392722 18.259389 -1.597027 1.929799 -11.406225 6.820142 -1.866810 -2.194348 -1.420769 -18.494527 2.249496 -27.647995 -1.781059 10.041062 24.910579 0.467133 3.141285 12.726541 0.091900 -1.955300 -5.382200 -0.152847 -0.239461 0.829329 12.739704 7.712722 -11.280798 -9.133873 -17.263138 58.654506 0.779757 -6.720134 24.405893 -1.222600 7.013300 -19.754700 -3.014991 4.598813 0.403679 0.128908 5.880941 -3.872907 -2.670136 3.221632 -1.710258 -4.489263 -1.076172 -11.563309 4.989212 -1.232252 8.454426 1.241200 -0.514700 4.795800 1.767371 -8.563542 0.441392 -89.485610 14.212796 -28.508411 2.499427 -5.606876 -0.680760 0.004003 1.581437 32.331467 19.026483 -8.326582 -3.482900 -7.125000 0.000000 0.000000 -5.060100 19.707800 3.069200 -3.869371 9.394885 0.734968 83.742128 10.845273 26.053098 -27.109770 35.712211 -12.063729 2.038463 1.929712 -21.083987 -26.066180 -38.581628 18.869200 7.125000 0.000000 0.000000 10.394600 -72.203900 -6.741400 
